<svg width="578" height="424" viewBox="0 0 578 424" fill="none" xmlns="http://www.w3.org/2000/svg">
<path d="M405.303 70.9938C413.101 71.1784 421.48 71.0296 429.315 71.0305L474.087 71.0468L474.107 93.9711L497.041 93.9759C497.397 110.788 497.072 128.898 497.072 145.818L497.069 246.57V280.341C497.069 286.83 496.942 293.935 497.188 300.385C489.556 300.54 481.775 300.329 474.085 300.461L474.15 323.414L405.244 323.397L405.269 300.484C397.731 300.298 389.84 300.413 382.276 300.416L382.265 164.28V119.759C382.265 111.288 382.135 102.4 382.347 93.9564L405.244 93.9654L405.303 70.9938Z" fill="white"/>
<path d="M405.329 117.017C423.548 116.981 441.767 117.002 459.993 117.08L460 186.974C441.74 187.012 423.474 187.008 405.215 186.961C405.141 163.777 404.71 140.173 405.329 117.017Z" fill="#232323"/>
<path d="M106.68 71.0329L175.52 71.025L175.541 93.9795L198.466 93.9631L198.509 300.425C190.85 300.377 183.19 300.385 175.531 300.447L175.531 323.437L106.598 323.428L106.678 300.436L83.6146 300.396C83.8006 283.744 83.6434 266.774 83.6431 250.101L83.64 155.072L83.6346 116.799C83.6343 109.347 83.4873 101.388 83.7596 93.9812L106.594 93.9662C106.711 86.359 106.575 78.6768 106.68 71.0329Z" fill="white"/>
<path d="M106.445 117L160.956 117.032L161 187L106.342 186.974C106.163 183.981 106.179 180.845 106.281 177.844C106.962 157.635 105.231 137.186 106.445 117Z" fill="#232323"/>
<path d="M118.251 127L148.975 127.032L149 197L118.193 196.974C118.092 193.981 118.101 190.845 118.158 187.844C118.542 167.635 117.566 147.186 118.251 127Z" fill="#232323"/>
<path d="M118.251 106L148.975 106.032L149 176L118.193 175.974C118.092 172.981 118.101 169.845 118.158 166.844C118.542 146.635 117.566 126.186 118.251 106Z" fill="#232323"/>
<path d="M417.251 127L447.975 127.032L448 197L417.193 196.974C417.092 193.981 417.101 190.845 417.158 187.844C417.542 167.635 416.566 147.186 417.251 127Z" fill="#232323"/>
<path d="M417.251 106L447.975 106.032L448 176L417.193 175.974C417.092 172.981 417.101 169.845 417.158 166.844C417.542 146.635 416.566 126.186 417.251 106Z" fill="#232323"/>
</svg>
