<svg width="184" height="184" viewBox="0 0 184 184" fill="none" xmlns="http://www.w3.org/2000/svg">
<path fill-rule="evenodd" clip-rule="evenodd" d="M88.7303 0.0545366C139.436 -1.67662 181.945 38.0198 183.677 88.7186C185.407 139.416 145.705 181.921 95.0008 183.651C44.2948 185.382 1.78608 145.686 0.0545368 94.9876C-1.67674 44.2888 38.0251 1.78558 88.7303 0.0545366ZM172.315 88.7489C170.598 44.3351 133.205 9.71716 88.785 11.4193C44.3465 13.1223 9.70648 50.5299 11.4227 94.9622C13.1392 139.394 50.5617 174.018 94.9994 172.29C139.419 170.56 174.03 133.162 172.315 88.7489Z" fill="black"/>
<path d="M145.122 91.1635L156.143 91.1829C156.063 94.6588 155.926 97.6688 155.447 101.104C153.403 115.039 146.903 127.937 136.917 137.869C124.737 149.836 108.29 156.458 91.2135 156.273C74.0599 156.118 57.684 149.097 45.7454 136.781C33.9759 124.528 27.4761 108.153 27.6397 91.1657C31.3441 91.1502 35.0486 91.1622 38.7528 91.2019C38.7344 91.4409 38.7238 91.6803 38.7208 91.92C38.439 104.991 44.5604 119.482 53.5444 128.855C63.2974 138.992 76.6556 144.875 90.7206 145.228C105.002 145.481 118.791 140.007 129.009 130.025C131.93 127.206 133.202 125.418 135.473 122.123C142.098 112.508 144.916 102.753 145.122 91.1635Z" fill="black"/>
</svg>
