<svg width="609" height="580" viewBox="0 0 609 580" fill="none" xmlns="http://www.w3.org/2000/svg">
<path d="M355.687 0.186642C388.127 -1.93488 413.098 14.117 426.336 43.8859C466.095 133.309 462.37 240.133 443.21 334.19C440.322 348.36 436.424 364.342 431.76 377.918C449.044 399.824 459.34 417.892 469.351 444.093C503.36 448.014 579.272 461.508 601.701 489.688C606.388 495.581 608.997 502.895 608.005 510.458C606.709 520.333 600.115 527.688 592.48 533.475C538.616 574.274 363.459 580.852 292.204 579.919C237.718 579.343 183.318 575.421 129.31 568.191C96.0682 563.437 27.9209 551.917 5.93129 523.874C1.5086 518.23 -1.06275 509.853 0.4225 502.634C2.85787 490.805 9.97203 484.572 19.1627 478.025C51.3834 456.178 118.915 446.458 156.945 442.216C154.411 372.981 141.529 304.519 118.726 239.098C104.449 198.596 81.6871 163.032 78.5768 119.594C73.0302 42.1086 149.654 8.57319 203.74 64.2775C224.277 85.4293 237.085 106.916 247.836 134.393C272.823 198.191 282.312 267.66 284.48 335.711C295.774 335.046 305.91 334.552 317.234 334.451C316.735 285.887 313.295 237.402 306.932 189.257C299.452 131.283 266.851 11.6333 355.687 0.186642ZM409.873 79.9425C402.131 56.3981 389.446 25.5451 359.264 28.6554C349.277 30.4176 338.309 34.1256 333.092 43.2687C315.441 74.1941 326.135 123.015 331.168 155.598C334.15 175.096 336.717 194.656 338.856 214.265C341.631 239.791 343.626 265.395 344.844 291.044C345.403 304.923 345.077 324.725 346.009 337.659C357.898 339.792 381.937 342.656 377.51 360.278C376.548 364.2 373.981 367.533 370.428 369.464C363.631 373.094 351.291 368.24 343.145 366.41C330.466 363.107 318.405 363.642 305.643 363.434C292.346 363.22 275.994 368.049 263.797 365.405C253.18 363.1 255.815 333.798 255.444 325.753C254.965 316.211 254.345 306.681 253.583 297.163C248.328 232.734 228.685 101.554 161.178 69.339C152.461 65.1796 141.653 63.6298 132.576 67.4464C123.175 71.3992 114.446 80.2017 110.893 89.7501C101.888 113.952 111.011 146.496 121.182 168.969C132.3 193.535 142.187 217.622 150.542 243.226C152.629 249.624 156.661 261.337 157.996 267.531C178.745 340.356 188.25 415.925 186.182 491.624C185.779 503.198 184.997 514.76 183.838 526.28C183.216 532.305 181.932 540.04 181.588 545.839C254.149 552.291 327.11 552.98 399.779 547.901C418.47 546.522 439.194 544.847 457.725 542.244C458.557 497.025 446.353 452.524 422.576 414.054C418.274 407.221 401.586 388.281 401.787 384.169C402.268 374.075 409.326 352.525 411.976 341.73C414.525 331.332 416.771 320.863 418.719 310.335C432.462 235.657 433.798 152.733 409.873 79.9425ZM331.696 498.653C360.708 497.346 365.449 523.256 335.755 530.511C304.586 532.157 302.251 503.537 331.696 498.653Z" fill="black"/>
</svg>
