<svg width="500" height="500" viewBox="0 0 500 500" fill="none" xmlns="http://www.w3.org/2000/svg">
<g clip-path="url(#clip0_75_114)">
<rect width="500" height="500" fill="#E9E9E9"/>
<path d="M250.001 -613.193C331.701 -613.193 410.056 -580.738 467.827 -522.967C525.598 -465.196 558.053 -386.841 558.053 -305.141C558.053 -297.439 557.668 -289.737 557.052 -282.036C563.444 -286.58 569.914 -290.662 576.152 -294.281C611.199 -314.828 649.965 -328.239 690.216 -333.742C730.468 -339.246 771.411 -336.734 810.687 -326.35C849.964 -315.966 886.799 -297.915 919.071 -273.237C951.343 -248.56 978.415 -217.741 998.728 -182.559C1019.04 -147.376 1032.19 -108.522 1037.43 -68.2354C1042.67 -27.9482 1039.88 12.9768 1029.24 52.1836C1018.6 91.3903 1000.3 128.104 975.41 160.212C950.518 192.32 919.522 219.187 884.205 239.267C877.967 242.886 871.113 246.352 864.028 249.74C871.113 253.129 877.967 256.595 884.205 260.215V260.061C936.975 290.518 979.528 335.94 1006.48 390.582C1033.44 445.224 1043.58 506.633 1035.64 567.041C1027.69 627.449 1002.01 684.145 961.837 729.957C921.668 775.769 868.816 808.641 809.964 824.414C783.792 831.436 756.814 835.009 729.716 835.042C675.788 835.031 622.817 820.792 576.152 793.763C569.914 790.143 563.444 785.907 557.052 781.518C557.668 789.296 558.053 796.997 558.053 804.236C558.053 885.937 525.598 964.291 467.827 1022.06C410.055 1079.83 331.701 1112.29 250.001 1112.29C168.3 1112.29 89.9455 1079.83 32.1743 1022.06C-25.5968 964.291 -58.0532 885.937 -58.0532 804.236C-58.0532 796.92 -57.6674 789.219 -57.0513 781.518C-63.4434 786.061 -69.9128 790.143 -76.1509 793.763C-111.198 814.309 -149.964 827.72 -190.215 833.224C-230.467 838.727 -271.41 836.214 -310.686 825.83C-349.962 815.446 -386.797 797.395 -419.069 772.718C-451.341 748.04 -478.414 717.223 -498.727 682.04C-519.04 646.857 -532.194 608.004 -537.43 567.717C-542.667 527.43 -539.883 486.505 -529.239 447.298C-518.594 408.091 -500.3 371.376 -475.409 339.269C-450.517 307.161 -419.52 280.294 -384.204 260.215C-377.966 256.595 -371.112 253.129 -364.027 249.74C-371.112 246.352 -377.966 242.886 -384.204 239.267C-419.521 219.187 -450.517 192.32 -475.409 160.212C-500.3 128.104 -518.594 91.3903 -529.239 52.1836C-539.883 12.9768 -542.667 -27.9482 -537.43 -68.2354C-532.194 -108.522 -519.04 -147.376 -498.727 -182.559C-478.414 -217.742 -451.341 -248.56 -419.069 -273.237C-386.797 -297.915 -349.962 -315.966 -310.686 -326.35C-271.41 -336.734 -230.467 -339.246 -190.215 -333.742C-149.964 -328.239 -111.198 -314.828 -76.1509 -294.281C-69.9128 -290.662 -63.4434 -286.426 -57.0513 -282.036C-58.0524 -290.2 -58.0532 -297.901 -58.0532 -305.141C-58.0531 -386.841 -25.5968 -465.196 32.1743 -522.967C89.9455 -580.738 168.3 -613.193 250.001 -613.193ZM146.741 -58.5811C132.891 -58.7426 119.039 -58.7369 105.19 -58.5625C97.5334 -58.356 91.1894 -58.1932 83.5923 -57.3457C82.0055 -45.4658 82.9986 -26.8557 82.0112 -13.373C69.4706 -13.2231 45.7348 -13.9607 34.311 -12.2002C33.5681 -2.84929 33.6804 6.42768 33.3823 15.7949C32.4935 44.7017 32.2321 73.6246 32.6001 102.543C32.6806 124.541 35.8901 260.293 30.8394 270.424C25.2383 273.964 -4.53047 272.15 -14.5415 273.497C-16.2164 287.071 -13.4465 302.687 -15.4458 318.454C-26.5919 318.973 -49.9199 318.681 -59.436 320.11L-58.9624 461.881C-48.3462 461.927 -28.397 460.842 -18.7173 462.778C-16.4177 463.239 -14.2669 464.086 -12.6274 465.818C-6.62735 472.154 -9.12232 500.713 -8.40086 510.513C-1.3759 510.618 26.7722 510.138 31.2612 512.611C34.7196 517.699 33.7426 548.826 33.6441 556.98C63.7837 557.803 97.2108 557.19 127.597 557.179L410.945 557.189C422.545 557.154 434.141 557.05 445.736 556.887C451.492 556.834 459.237 557.102 464.812 556.595C465.08 548.347 464.872 540.104 464.732 531.856C464.662 527.347 464.159 522.388 464.853 517.932C465.139 516.112 465.701 514.531 466.96 513.16C471.191 508.553 505.103 511.201 513.321 511.68C513.595 497.353 512.942 478.885 513.957 465.171C527.954 464.669 541.952 464.407 555.956 464.378C556.655 456.632 556.416 446.068 556.498 438.076C557.192 399.945 555.546 362.559 555.826 324.475C545.613 323.728 522.677 324.199 514.651 321.592C512.487 309.902 513.314 289.193 513.658 277.241C507.507 276.926 465.314 276.313 463.291 274.826C461.763 268.142 461.884 262.366 461.896 255.533C461.925 237.2 462.636 218.844 462.666 200.514L462.03 74.5439C461.989 47.7863 462.847 14.6131 461.664 -11.4912L460.811 -11.5938C447.939 -13.0705 432.951 -10.9914 420.202 -12.0361C408.333 -13.0074 411.926 -44.255 411.336 -52.9482C396.453 -53.2399 381.375 -52.9018 366.462 -52.875C353.002 -52.8511 339.255 -53.195 325.83 -52.9092C323.392 -44.0902 325.741 -20.7438 321.164 -16.415C314.136 -14.2727 283.169 -15.7366 273.567 -15.6084C272.348 5.27724 273.088 33.3697 272.901 54.7861C272.399 112.856 273.782 170.505 271.863 228.618C263.966 229.864 235.895 229.465 227.297 228.823C227.567 213.972 226.607 198.877 226.528 183.896L226.325 19.1465C226.315 10.6195 226.704 -5.16126 225.744 -13.1865C208.2 -14.0142 191.228 -12.5912 173.884 -12.6191C173.107 -28.2885 173.049 -42.7294 172.471 -58.0791C163.86 -58.9086 155.399 -58.5373 146.741 -58.5811ZM225.626 416.389C238.067 416.604 260.698 415.571 272.188 417.088C272.258 424.513 271.95 432.681 271.956 440.223C271.961 447.555 272.213 459.904 271.029 466.682C268.439 467.341 230.482 466.098 225.906 466.051C225.425 450.226 225.805 432.464 225.626 416.389ZM130.766 314.663C145.014 314.214 163.01 314.93 177.515 315.175C178.883 321.428 178.901 352.997 178.707 361.03C178.277 378.716 179.675 401.332 178.766 418.58L177.744 419.462C166.415 420.086 141.57 420.12 130.199 419.134C129.975 398.245 131.046 376.516 130.515 355.377C130.338 348.341 129.752 319.293 130.766 314.663ZM320.649 315.355C333.865 314.387 360.077 314.847 373.748 315.221C375.083 322.168 374.769 336.292 374.757 343.84L374.675 388.173C374.67 395.89 375.667 410.87 375.364 417.141L374.313 417.705C356.361 418.078 336.945 417.758 318.917 417.758C319.507 394.122 319.705 370.479 319.501 346.843L319.482 326.165C319.453 323.254 318.392 316.925 320.649 315.355Z" fill="#F5F5F5"/>
</g>
<defs>
<clipPath id="clip0_75_114">
<rect width="500" height="500" fill="white"/>
</clipPath>
</defs>
</svg>
