<svg width="35" height="35" viewBox="0 0 35 35" fill="none" xmlns="http://www.w3.org/2000/svg">
<path d="M11.2075 14.9178C13.4801 14.8998 15.8868 14.9651 18.1444 14.9014L18.203 14.9646C18.1924 15.8771 18.1914 16.7897 18.1998 17.7023C16.7393 17.7195 15.2787 17.7242 13.8182 17.7163C13.0718 17.7166 11.9415 17.7562 11.2208 17.7032C11.1594 18.508 11.2027 19.6461 11.2037 20.48C10.0383 20.4963 8.87265 20.502 7.70704 20.4972C7.09246 20.4976 6.21479 20.526 5.624 20.481C5.56567 21.2237 5.60336 22.2959 5.60524 23.0616L5.60559 27.424C4.81069 27.4332 3.57717 27.48 2.82591 27.426C2.77435 28.0811 2.79482 29.508 2.82551 30.1934C3.35102 30.1573 4.11868 30.1878 4.66731 30.1903L16.4921 30.1931C17.9606 30.1931 19.5305 30.2248 20.9861 30.1893C20.9861 29.2812 20.9918 28.373 21.0032 27.465C19.7938 27.4381 18.5841 27.4283 17.3745 27.4356C16.7552 27.435 15.9945 27.4126 15.3905 27.4336C15.4039 26.5347 15.3758 25.5727 15.4063 24.687C14.5955 24.6723 13.3678 24.6168 12.5926 24.6562C12.6069 23.7575 12.5695 22.7398 12.6121 21.8619C13.53 21.8599 14.4863 21.8448 15.401 21.8719C15.3971 22.7193 15.3776 23.7962 15.4174 24.6386C15.8102 24.6121 16.2375 24.6218 16.634 24.6303C18.0834 24.6614 19.5504 24.605 20.998 24.6496C20.9936 25.4924 20.9736 26.5786 21.0143 27.4165C21.7863 27.3637 22.7682 27.4313 23.5771 27.4098C23.4286 27.643 23.5159 28.5884 23.5205 28.9078C23.5238 29.6617 23.5223 30.4156 23.516 31.1694C23.5136 31.6211 23.4268 32.5992 23.4706 32.9876L2.79823 32.9872C2.82962 32.1239 2.80216 31.1224 2.81296 30.2426C1.87543 30.2236 0.937756 30.2125 0 30.2093C0.0318328 29.3363 0.0049415 28.3058 0.013818 27.4179C0.893462 27.4181 1.93113 27.4432 2.79801 27.3929C2.82866 26.7116 2.8047 25.8646 2.80457 25.1635L2.81261 20.4735C3.6902 20.4738 4.73172 20.4995 5.59602 20.4484C5.63397 19.6273 5.60205 18.5382 5.61053 17.6955C7.33598 17.682 9.5174 17.7666 11.1932 17.6707C11.2303 16.8443 11.199 15.7648 11.2075 14.9178Z" fill="#E9E9E9"/>
<path d="M11.2074 1.02843C14.8675 1.00238 18.7414 0.976732 22.3936 1.03676C22.3937 1.9547 22.3985 2.87269 22.408 3.79059C23.1706 3.7731 24.0824 3.80075 24.8591 3.80105C26.3693 3.7945 27.8796 3.79901 29.3898 3.8146C29.3894 4.7325 29.3944 5.6504 29.4046 6.56826C30.2909 6.55129 31.2983 6.58124 32.188 6.59256L32.2016 9.34666L34.8109 9.36129C34.6763 9.57088 34.6898 9.50152 34.6873 9.73673C34.6807 10.3672 34.8342 14.6242 34.5879 14.8036C34.0114 14.8847 32.7833 14.8541 32.1809 14.8482C32.2131 14.354 32.1885 13.5776 32.1883 13.0663C32.1831 11.8468 32.1861 10.6274 32.1974 9.40799C31.2595 9.39024 30.3215 9.37925 29.3833 9.37504C29.4166 8.52524 29.3891 7.49775 29.3983 6.6318C27.0731 6.5749 24.7162 6.6127 22.3872 6.59695C22.4211 5.74793 22.3927 4.71995 22.4022 3.85379C19.3381 3.75904 16.2381 3.8593 13.1708 3.83183C12.5238 3.82605 11.87 3.85631 11.2247 3.81178C11.1545 4.37602 11.2086 5.93851 11.2147 6.56774C12.1201 6.54413 13.2431 6.5792 14.1694 6.57993L20.8185 6.58341C20.7279 6.71631 20.6918 6.73454 20.6957 6.9042C20.7513 9.26671 20.7062 11.6313 20.7213 13.9944C20.7232 14.2935 20.6427 14.5299 20.6353 14.7841C20.1446 14.9265 18.7469 14.7976 18.1719 14.8646C18.2171 14.6153 18.1979 13.4546 18.1976 13.1357C18.1904 11.888 18.193 10.6402 18.2054 9.39249L11.1936 9.3757C11.2251 8.51279 11.1976 7.51068 11.2084 6.63132C10.2708 6.61201 9.33309 6.60077 8.39534 6.5976C8.42769 5.72705 8.40041 4.69205 8.40924 3.80622C9.28652 3.80635 10.3286 3.83174 11.1926 3.78039C11.2308 2.96084 11.199 1.86946 11.2074 1.02843Z" fill="#E9E9E9"/>
<path d="M29.3974 14.9177L32.0878 14.9078L32.2008 14.9529C32.1646 15.8404 32.1928 16.8076 32.1931 17.7026C31.4598 17.7199 30.129 17.7583 29.411 17.703C29.3278 18.756 29.3943 20.694 29.3945 21.8306L29.3918 30.1852C30.2559 30.1925 31.12 30.1946 31.9841 30.1918C31.9594 30.2375 31.9275 30.2968 31.8881 30.3698C31.8893 30.7245 31.9958 32.6506 31.8242 32.8439C31.0907 32.9691 30.079 32.8795 29.3297 32.8696C28.4749 32.8584 27.5955 32.8578 26.7407 32.8698C26.6464 32.7656 26.6313 32.6089 26.6012 32.4673C26.5647 32.1363 26.5898 31.2444 26.5905 30.8756L26.5936 27.667C26.5932 24.3556 26.5637 21.0039 26.5998 17.6956C27.4781 17.6959 28.5176 17.7214 29.3829 17.6707C29.4209 16.8531 29.3894 15.7569 29.3974 14.9177Z" fill="#E9E9E9"/>
<path d="M25.211 9.36302C26.1378 9.35456 27.0646 9.35673 27.9913 9.36953C27.9842 10.0405 28.0495 11.5565 27.972 12.143C27.0815 12.1812 26.0873 12.1524 25.1868 12.1533C25.2099 11.2599 25.154 10.2386 25.211 9.36302Z" fill="#E9E9E9"/>
<path d="M20.8185 6.58341L20.9539 6.61626C21.0327 6.75689 20.9938 14.1663 20.9974 14.9242C20.66 14.9287 18.3491 14.908 18.203 14.9646L18.1444 14.9014L18.1719 14.8646C18.7469 14.7976 20.1446 14.9265 20.6353 14.7841C20.6427 14.5299 20.7232 14.2935 20.7213 13.9944C20.7062 11.6313 20.7513 9.26671 20.6957 6.9042C20.6918 6.73454 20.7279 6.71631 20.8185 6.58341Z" fill="#E9E9E9"/>
<path d="M34.8109 9.36129C34.8668 9.37526 34.9616 9.38529 34.9632 9.42262C35.0237 10.8329 34.9918 13.6685 34.9899 14.9241C34.534 14.9301 32.511 14.8754 32.2008 14.9529L32.0878 14.9078L32.1809 14.8482C32.7833 14.8541 34.0114 14.8847 34.5879 14.8036C34.8342 14.6242 34.6807 10.3672 34.6873 9.73673C34.6898 9.50152 34.6763 9.57088 34.8109 9.36129Z" fill="#E9E9E9"/>
<path d="M23.5771 27.4098C23.7398 27.4454 23.7153 27.4129 23.787 27.5205C23.7959 28.1881 23.8942 32.7544 23.7256 32.9642C23.6275 32.9778 23.5694 32.9851 23.4706 32.9876C23.4268 32.5992 23.5136 31.6211 23.516 31.1694C23.5223 30.4156 23.5238 29.6617 23.5205 28.9078C23.5159 28.5884 23.4286 27.643 23.5771 27.4098Z" fill="#E9E9E9"/>
<path d="M31.9841 30.1918C32.0522 30.2082 32.1408 30.2126 32.1476 30.262C32.2414 30.9397 32.1946 32.3645 32.1923 32.9807C31.5881 32.9913 26.7625 33.0378 26.6121 32.932C26.5781 32.7503 26.5901 32.6524 26.6012 32.4673C26.6313 32.6089 26.6464 32.7656 26.7407 32.8698C27.5955 32.8578 28.4749 32.8584 29.3297 32.8696C30.079 32.8795 31.0907 32.9691 31.8242 32.8439C31.9958 32.6506 31.8893 30.7245 31.8881 30.3698C31.9275 30.2968 31.9594 30.2375 31.9841 30.1918Z" fill="#E9E9E9"/>
</svg>
