<svg width="38" height="47" viewBox="0 0 38 47" fill="none" xmlns="http://www.w3.org/2000/svg">
<path d="M25.7648 0.000356964C28.0394 -0.0445619 27.8411 4.1634 29.1996 4.94416C30.7205 5.79711 35.1297 5.79891 36.4182 6.71258C39.5559 8.93725 30.4357 9.95516 29.3675 10.2003C31.0491 10.7794 32.1384 11.5509 33.3526 12.8455C37.4925 17.2593 36.8947 21.6131 37.0156 27.0333C37.1136 30.3005 37.1199 33.5698 37.0345 36.8374C36.9505 39.5345 36.1536 42.386 34.0823 44.2297C32.6886 45.5062 30.8178 46.8097 28.8594 46.8715C22.8505 47.0609 16.7738 46.9416 10.759 46.9261C7.3669 46.9172 4.65883 45.5872 2.35756 43.1334C0.344716 40.3883 -0.146145 36.7425 0.0346556 33.4327C0.203618 30.3402 0.980753 27.4208 3.30928 25.2306C6.61488 22.121 11.147 22.37 15.3657 22.3849C17.4826 22.3925 19.721 22.3969 21.8532 22.499C22.5578 21.4582 22.8919 19.9785 21.1258 19.9362C17.009 19.8375 12.8429 20.1113 8.72458 19.8765C7.19591 19.7893 5.4722 19.1773 4.50302 17.944C2.52844 15.4757 2.72312 11.846 5.27633 9.82977C5.96223 9.29201 6.76005 8.91466 7.61096 8.72544C8.97988 8.42077 14.8815 8.53013 16.4368 8.71038L16.4064 8.64859C16.2047 8.2343 15.8342 7.55036 16.1573 7.15556C17.4865 5.53116 21.2519 5.67197 23.1648 5.05365C24.3463 3.4871 24.4532 1.95176 25.3159 0.277293C25.3159 0.277293 25.7256 0.0245854 25.7648 0.000356964ZM8.46259 11.1641C5.60613 11.824 4.29269 15.3654 7.21145 15.7096C7.75254 15.0455 7.9105 14.5215 8.21327 13.7266C9.10663 13.4606 10.2828 12.9694 9.93124 11.7746C9.5627 11.1901 9.07818 11.1427 8.46259 11.1641ZM22.0907 33.2412C20.6814 32.6763 19.4232 32.814 17.9065 32.816C16.5548 32.8259 15.3638 32.7159 14.2996 33.7217C13.1792 34.7808 14.4627 36.1007 15.4135 36.685C16.4855 36.7281 17.433 36.7267 18.5066 36.7082C20.4679 36.7548 21.7596 37.1284 22.5313 35.0017C22.3962 34.3654 22.2882 33.8672 22.0907 33.2412ZM4.69997 33.0474C5.30156 30.9782 6.06901 27.955 8.69756 27.8706C10.0772 27.8262 13.3802 26.1043 10.5269 25.0214C10.228 24.9079 9.6067 24.9852 9.26651 25.0225C5.05654 26.2237 2.6858 28.1551 2.8122 32.8261C3.62927 33.5431 3.79979 33.7418 4.69997 33.0474ZM28.4026 9.42003C29.7263 8.9951 35.3662 8.16856 35.7463 7.59793C34.9064 6.37599 28.9711 6.9508 27.851 4.94177C27.2832 3.92338 26.8986 1.5294 25.9421 1.33482C25.6092 2.21711 24.614 4.79821 24.1516 5.5932C22.0248 6.79207 17.9453 6.58648 17.3094 7.60881C17.9212 8.45471 22.3092 8.57663 23.753 9.538C25.2511 10.5357 25.7223 14.0035 26.2879 14.2651C26.4739 14.0777 26.4976 14.0488 26.6116 13.8076C27.4424 12.0262 27.2407 11.2911 28.4026 9.42003Z" fill="#007AFF"/>
<path d="M28.4026 9.42003C29.7263 8.9951 35.3662 8.16856 35.7463 7.59793C34.9064 6.37599 28.9711 6.9508 27.851 4.94177C27.2832 3.92338 26.8986 1.5294 25.9421 1.33482C25.6092 2.21711 24.614 4.79821 24.1516 5.5932C22.0248 6.79207 17.9453 6.58648 17.3094 7.60881C17.9212 8.45471 22.3092 8.57663 23.753 9.538C25.2511 10.5357 25.7223 14.0035 26.2879 14.2651C26.4739 14.0777 26.4976 14.0488 26.6116 13.8076C27.4424 12.0262 27.2407 11.2911 28.4026 9.42003Z" fill="#E6F75C"/>
</svg>
