<svg width="40" height="56" viewBox="0 0 40 56" fill="none" xmlns="http://www.w3.org/2000/svg">
<path d="M31.6676 0C33.698 0.219024 35.0875 -0.216957 37.0115 1.26216C40.3286 3.81061 39.8311 7.2185 39.8311 10.8515L39.8299 20.366L39.9292 33.1804C39.9292 37.346 40.3489 41.6488 37.6608 45.1589C34.474 49.3213 31.3339 49.6868 26.4851 49.6796L19.6907 49.6657C18.2306 49.6632 16.2337 49.617 14.8227 49.8197C14.3276 51.1303 13.499 53.7143 12.7313 54.8008C11.5032 56.538 10.3302 52.79 9.94991 51.9091C9.70239 51.0254 9.57445 50.5933 9.19539 49.752C8.12756 49.5726 2.24315 48.8478 1.82104 47.4027C1.51134 46.3409 2.77289 45.9948 3.69483 45.8077C-0.853898 40.8117 0.222288 34.0784 0.0213981 28.0039C-0.575293 9.93873 11.3908 11.1663 25.4388 11.3122C25.4029 8.11377 25.0143 5.01738 27.1894 2.38919C28.592 0.693086 29.6252 0.349896 31.6676 0ZM2.7968 47.1792C4.90854 48.3803 7.49978 48.2552 9.77414 48.98C10.8994 50.4353 11.2521 53.0794 11.9887 53.8023C12.0736 53.7723 12.18 53.7473 12.241 53.6918C13.3591 51.7531 13.3172 49.067 15.1934 48.6508C16.156 48.437 20.9929 47.871 21.4808 47.3208C21.4557 47.209 21.4616 47.115 21.3767 47.0851C19.3128 46.3654 16.1763 46.0126 14.1806 45.3292C13.5994 44.5571 12.1525 40.9933 11.8799 40.786C10.1388 43.6337 11.3705 45.0852 7.89678 45.9013C6.646 46.1952 3.93398 46.7583 2.7968 47.1792ZM5.71449 20.828C7.31085 18.414 7.8047 17.4836 10.9065 16.8539C11.5953 16.7141 15.3381 16.5166 14.9052 14.9386C14.6445 13.9839 13.4583 13.9309 12.5699 14.0935C9.02558 14.5738 7.12788 14.9159 4.56654 17.8801C2.99051 19.7052 3.61112 22.311 5.71449 20.828ZM21.0754 38.4273C25.5022 37.0818 25.2738 34.2558 25.4507 30.43C25.6349 26.4511 24.2896 22.0375 19.2004 22.6871C13.8589 23.6799 14.2033 29.6384 14.6457 33.7898C14.9949 37.062 17.9891 38.8519 21.0754 38.4273ZM29.9062 8.11186C30.2637 7.46581 30.3187 6.66293 30.5435 5.95915C30.7504 5.77101 31.2299 5.33282 31.4595 5.21711C32.2977 4.79374 33.649 4.63991 33.9288 3.57211C33.8953 2.39443 32.8825 2.30262 31.9856 2.34991C31.8912 2.35449 31.7955 2.35991 31.6999 2.36618C29.9708 3.00985 29.0763 3.54273 28.2094 5.26899C27.4369 6.81055 27.7096 8.91246 29.9062 8.11186Z" fill="#7BDDAA"/>
<path d="M2.7968 47.1792C4.90854 48.3803 7.49978 48.2552 9.77414 48.98C10.8994 50.4353 11.2521 53.0794 11.9887 53.8023C12.0736 53.7723 12.18 53.7473 12.241 53.6918C13.3591 51.7531 13.3172 49.067 15.1934 48.6508C16.156 48.437 20.9929 47.871 21.4808 47.3208C21.4557 47.209 21.4616 47.115 21.3767 47.0851C19.3128 46.3654 16.1763 46.0126 14.1806 45.3292C13.5994 44.5571 12.1525 40.9933 11.8799 40.786C10.1388 43.6337 11.3705 45.0852 7.89678 45.9013C6.646 46.1952 3.93398 46.7583 2.7968 47.1792Z" fill="#E6F75C"/>
</svg>
