<svg width="26" height="22" viewBox="0 0 26 22" fill="none" xmlns="http://www.w3.org/2000/svg">
<path d="M5.54503 12.819C3.8004 12.021 2.41664 11.9617 1.19157 10.2068C0.182935 8.73889 -0.207246 6.93329 0.10509 5.18016C0.797802 1.39158 3.61002 0.0868113 7.16386 0.0887238C10.1946 -0.187387 13.3159 0.292162 16.3149 0.0444988C22.6668 -0.479873 26.9764 4.8572 22.9371 10.3982C22.7123 10.7064 21.5273 11.7171 21.4842 11.9348L21.776 12.0186C22.668 12.2233 25.0464 12.5124 25.4913 13.3176C26.1944 14.5914 24.5657 14.9856 23.682 15.1839C22.0092 15.5558 19.4143 15.8928 17.9172 16.4139C17.0718 17.8661 16.2671 21.8343 14.6145 21.7664C14.5248 21.7198 14.4148 21.6629 14.2845 21.5957C13.5 20.281 12.8065 17.5725 11.8917 16.3827C10.2946 15.8283 4.51355 15.4484 4.62022 13.6065C4.79265 13.2201 5.17685 13.0448 5.54503 12.819ZM15.0139 20.5611C16.4273 17.5387 16.0829 15.0868 19.8161 14.9406C20.8744 14.8992 22.5712 14.3465 23.7119 14.2074C24.1807 13.9802 24.2417 14.0405 24.4892 13.6374L24.3876 13.4373C23.8088 13.1392 22.3308 12.9958 21.6074 12.8887C20.2 12.5914 18.0739 12.1763 16.7454 11.7524C16.0683 9.97376 15.6708 9.13215 14.8737 7.44412C14.8599 7.41506 14.8461 7.38575 14.8321 7.35618C14.2414 8.60932 13.2788 10.8438 12.6104 11.9042C11.5319 12.1836 6.29777 13.2749 5.93808 13.7349C6.28796 14.2769 11.6538 15.3826 12.6965 15.628C13.5586 16.955 14.0202 18.8828 15.0139 20.5611ZM4.06968 7.75433C4.581 7.12179 4.81573 6.30302 5.10259 5.52907C5.84577 5.10522 7.29648 4.89377 7.54472 4.08158C7.80528 3.22898 6.9839 2.41487 6.11398 2.44559C1.90844 3.34002 1.30685 8.02734 4.06968 7.75433Z" fill="#FF8F2E"/>
<path d="M21.776 12.0186C22.668 12.2233 25.0464 12.5124 25.4913 13.3176C26.1944 14.5914 24.5657 14.9856 23.682 15.1839C23.5326 14.9351 23.6593 14.5136 23.7119 14.2074C24.1807 13.9802 24.2417 14.0405 24.4892 13.6374L24.3876 13.4373C23.8088 13.1392 22.3308 12.9958 21.6074 12.8887C21.7616 12.5711 21.7545 12.3632 21.776 12.0186Z" fill="#FF8F2E"/>
<path d="M15.0139 20.5611C16.4273 17.5387 16.0829 15.0868 19.8161 14.9406C20.8744 14.8992 22.5712 14.3465 23.7119 14.2074C24.1807 13.9802 24.2417 14.0405 24.4892 13.6374L24.3876 13.4373C23.8088 13.1392 22.3308 12.9958 21.6074 12.8887C20.2 12.5914 18.0739 12.1763 16.7454 11.7524C16.0683 9.97376 15.6708 9.13215 14.8737 7.44412L14.8321 7.35618C14.2414 8.60932 13.2788 10.8438 12.6104 11.9042C11.5319 12.1836 6.29777 13.2749 5.93808 13.7349C6.28796 14.2769 11.6538 15.3826 12.6965 15.628C13.5586 16.955 14.0202 18.8828 15.0139 20.5611Z" fill="#E6F75C"/>
</svg>
