<svg width="37" height="45" viewBox="0 0 37 45" fill="none" xmlns="http://www.w3.org/2000/svg">
<path d="M14.3642 0.0959562C14.876 -0.0582358 17.4684 0.0218483 18.0914 0.0132422C24.2867 -0.0719817 32.937 0.725752 35.3369 7.59375C35.8953 9.19101 36.4478 11.0934 36.5626 12.7657C36.7802 15.9496 36.6176 19.182 34.4568 21.7303C31.5702 25.1351 27.599 24.9242 23.641 24.9099C21.5723 24.8949 19.5037 24.8911 17.4362 24.8984C16.6721 24.8999 14.6715 24.6327 14.2638 25.3917C12.787 28.1422 17.0786 27.4918 18.5088 27.479L26.9641 27.483C27.9936 27.4899 30.4426 27.4558 31.3454 27.6138C32.2506 27.7636 33.1115 28.1105 33.8673 28.6301C36.8352 30.6934 36.6271 34.26 34.7223 36.9895C34.122 37.5286 33.1666 38.3578 32.3606 38.4931C30.5335 38.7998 28.4397 38.665 26.5898 38.6825C22.1487 38.7247 17.7112 38.5986 13.2725 38.6413C12.4091 40.1732 12.1915 41.7333 11.4884 43.3168C11.2349 43.8879 10.9276 44.1531 10.3034 44.1652C9.03226 43.628 8.33154 40.3963 7.34383 38.6594C5.95553 38.4875 0.322239 37.7392 0.136894 36.1647C0.102216 35.8833 0.183529 35.5998 0.3617 35.379C0.899798 34.7131 2.65997 34.6826 3.50897 34.5947C1.5491 32.2529 1.20353 31.6722 0.649885 28.6053C0.123745 25.6854 0.0639548 23.3733 0.020907 20.4298C-0.158459 7.98222 0.514755 1.24917 14.3642 0.0959562ZM7.78506 34.3923C5.9053 35.0987 3.06774 35.3672 0.978723 36.0675C1.92099 36.5344 2.91587 36.8858 3.94304 37.1141C5.52265 37.4803 6.83203 37.1884 8.16173 38.2528C9.08128 38.9893 9.84897 42.959 10.5509 42.7463L10.808 42.3385C11.5781 40.7756 11.5231 38.3941 13.1744 37.7417C14.5017 37.2172 19.402 36.9722 19.921 36.0316C19.9183 36.0274 19.9157 36.0233 19.9131 36.0191C19.7945 35.8307 19.718 35.7091 19.4594 35.6672C17.2054 35.301 14.693 34.9781 12.512 34.3043C11.81 33.2941 10.6908 29.9283 10.1658 29.6059C9.63732 31.0763 8.83973 33.2371 7.78506 34.3923ZM5.32775 10.0585L5.35884 10.0233C6.35492 8.86159 6.11098 7.70096 8.14379 6.56986C9.30369 5.92441 9.38023 5.99206 10.5892 5.61435C11.9356 5.19349 14.8844 5.30023 15.1307 3.78126C14.7887 2.75248 13.7173 2.69355 12.8181 2.83531C9.54525 3.29454 6.86791 3.51627 4.63899 6.41376C4.16187 7.03328 2.83216 9.33994 3.94184 10.1293C4.29101 10.3773 4.93315 10.239 5.32775 10.0585ZM14.9657 14.6314C17.0451 14.6296 19.8552 14.7153 21.8725 14.6106C23.1508 13.3935 23.2667 12.712 22.1846 11.2728C20.8716 10.7341 16.6804 10.9 15.1534 10.9587C13.514 12.2399 13.5535 13.248 14.9657 14.6314Z" fill="#DD7BC0"/>
<path d="M7.78506 34.3923C5.9053 35.0987 3.06774 35.3672 0.978723 36.0675C1.92099 36.5344 2.91587 36.8858 3.94304 37.1141C5.52265 37.4803 6.83203 37.1884 8.16173 38.2528C9.08128 38.9893 9.84897 42.959 10.5509 42.7463L10.808 42.3385C11.5781 40.7756 11.5231 38.3941 13.1744 37.7417C14.5017 37.2172 19.402 36.9722 19.921 36.0316L19.9131 36.0191C19.7945 35.8307 19.718 35.7091 19.4594 35.6672C17.2054 35.301 14.693 34.9781 12.512 34.3043C11.81 33.2941 10.6908 29.9283 10.1658 29.6059C9.63732 31.0763 8.83973 33.2371 7.78506 34.3923Z" fill="#E6F75C"/>
</svg>
