<svg width="59" height="39" viewBox="0 0 59 39" fill="none" xmlns="http://www.w3.org/2000/svg">
<path d="M17.0518 24.2854C18.0028 18.7434 19.2263 13.3725 20.5491 7.91451C20.906 6.44167 20.9072 5.67825 21.6758 4.25143C22.7105 2.33802 24.4711 0.920409 26.5619 0.317507C29.3317 -0.510229 32.2336 0.338066 34.3769 2.19267C36.8004 4.2898 36.9587 6.92541 37.5578 9.79481C38.2879 13.2919 39.3201 16.7372 39.7632 20.2949C39.9094 21.4676 40.2781 22.873 40.6173 24.0125C40.9448 22.7527 40.9884 21.2618 41.2596 19.9449C42.0296 16.2044 43.0091 12.4622 43.533 8.68475C43.773 6.95481 44.1611 5.06746 45.0266 3.53331C47.0288 -0.0154991 51.4672 -0.977586 54.8848 1.12791C57.0302 2.42707 57.5121 3.66323 58.1248 5.93714C58.2142 6.69424 58.1968 7.46006 58.0733 8.21225C57.3166 13.0889 55.4816 18.3072 54.5103 23.2178C54.1002 25.291 52.7572 30.5097 51.8798 32.3634C51.1012 33.9679 49.9459 35.3603 48.5125 36.422C44.8221 39.107 39.564 39.0772 36.0353 36.5867C35.6764 36.3334 34.6726 35.3909 34.4283 35.3523C34.1339 36.1297 33.5524 37.6912 33.0432 38.3081C31.0997 39.2967 30.6684 35.2744 30.0113 34.2339C29.8344 33.9536 29.6007 33.4241 29.4259 33.108C28.2384 32.7026 26.6967 32.3577 25.4569 32.0473C24.7818 33.2323 24.4278 33.8889 23.5163 34.9853C18.805 40.6522 8.42404 39.0206 5.83076 32.1439C4.6204 28.1121 3.60483 24.049 2.79386 19.919C2.56223 18.8644 2.20063 17.7953 1.97702 16.745C0.694197 10.7216 -3.17395 2.67652 5.47263 0.08849C7.58293 -0.0774157 9.16841 0.0565761 11.0013 1.34127C12.2079 2.18705 12.9851 3.49601 13.4982 4.86043C14.3351 7.08593 14.3197 9.49133 14.7487 11.8065C15.5195 15.9666 16.38 20.1064 17.0518 24.2854ZM30.395 28.2897C28.4663 29.4402 25.3354 29.4697 22.8646 30.3715C24.7455 31.0771 28.1001 31.8734 30.069 32.2448C30.9767 33.541 31.9759 36.5252 32.407 37.0466C32.4816 36.9957 32.5731 36.9484 32.6162 36.8781C33.5471 35.1071 33.2405 33.854 34.5611 32.1714C35.3009 32.0021 41.5686 30.7115 41.7464 30.5966L41.79 30.3603C41.2612 29.6021 35.5652 29.3516 34.4558 28.3742C33.0485 27.1342 33.5148 25.7154 32.1706 24.1339C31.7359 25.2305 30.9413 27.341 30.395 28.2897ZM26.3693 28.5092L27.7623 28.226C29.8621 27.8314 29.8744 27.1041 30.6486 25.2457C30.1559 23.9786 29.1193 18.0675 28.8317 17.7851C28.3448 20.0476 27.8921 22.1361 27.3004 24.375C26.9389 25.7429 26.8494 27.0934 26.3693 28.5092ZM50.9026 2.57648C49.3193 2.88654 48.2426 3.29676 47.2903 4.67229C46.3974 5.96201 46.1655 7.77884 48.3282 7.59895C49.1665 6.63328 49.1527 6.13999 50.2086 5.11288C51.1168 4.91075 52.6623 4.57619 52.4545 3.28743C52.1936 2.79796 51.4212 2.5656 50.9026 2.57648ZM2.37952 7.82857C2.89275 8.65654 3.11564 9.3363 4.21958 8.9507C4.98978 7.98921 4.70243 7.24323 4.95904 6.02631C5.2605 5.71793 5.70413 5.23766 6.02807 4.98438C7.02008 4.89784 8.287 4.72979 8.15009 3.35772C7.76923 2.47667 7.07162 2.55819 6.25526 2.58544C3.39868 3.26688 2.16285 4.86151 2.37952 7.82857ZM28.013 2.58162C26.0014 3.1495 25.0691 3.50785 23.8727 5.43823C23.1488 6.60603 22.9344 8.97317 25.0088 8.27501C25.1523 8.22767 25.2929 8.17173 25.4297 8.10766C26.54 5.71924 26.4806 5.13929 29.4022 4.82852C30.8404 3.2058 29.8052 2.52795 28.013 2.58162Z" fill="#FF2E2E"/>
<path d="M30.395 28.2897C28.4663 29.4402 25.3354 29.4697 22.8646 30.3715C24.7455 31.0771 28.1001 31.8734 30.069 32.2448C30.9767 33.541 31.9759 36.5252 32.407 37.0466C32.4816 36.9957 32.5731 36.9484 32.6162 36.8781C33.5471 35.1071 33.2405 33.854 34.5611 32.1714C35.3009 32.0021 41.5686 30.7115 41.7464 30.5966L41.79 30.3603C41.2612 29.6021 35.5652 29.3516 34.4558 28.3742C33.0485 27.1342 33.5148 25.7154 32.1706 24.1339C31.7359 25.2305 30.9413 27.341 30.395 28.2897Z" fill="#E6F75C"/>
</svg>
