<svg width="538" height="46" viewBox="0 0 538 46" fill="none" xmlns="http://www.w3.org/2000/svg">
<path d="M3.14453 37V12.3394H11.604C18.9185 12.3394 23.2422 16.9023 23.2422 24.644V24.6782C23.2422 32.437 18.9355 37 11.604 37H3.14453ZM6.2207 34.2314H11.3989C16.9019 34.2314 20.0977 30.7109 20.0977 24.7124V24.6782C20.0977 18.6626 16.8677 15.1079 11.3989 15.1079H6.2207V34.2314ZM35.7178 37.3247C30.4541 37.3247 27.2754 33.6333 27.2754 27.8569V27.8398C27.2754 22.1489 30.5225 18.2524 35.5298 18.2524C40.5371 18.2524 43.5791 21.978 43.5791 27.481V28.6431H30.3174C30.4028 32.4541 32.5049 34.6758 35.7861 34.6758C38.2812 34.6758 39.8193 33.4966 40.3149 32.3857L40.3833 32.2319H43.3569L43.3228 32.3687C42.6904 34.8638 40.0586 37.3247 35.7178 37.3247ZM35.5127 20.9014C32.7783 20.9014 30.6934 22.7642 30.3687 26.2676H40.5542C40.2466 22.6274 38.23 20.9014 35.5127 20.9014ZM54.5166 37.3247C50.415 37.3247 47.5952 35.3423 47.2534 32.3003H50.2954C50.791 33.8384 52.2607 34.8467 54.6191 34.8467C57.0972 34.8467 58.8574 33.6675 58.8574 31.9927V31.9585C58.8574 30.7109 57.9175 29.8394 55.6445 29.2925L52.7905 28.6089C49.3384 27.7886 47.7832 26.2847 47.7832 23.6357V23.6187C47.7832 20.5596 50.7227 18.2524 54.6362 18.2524C58.4985 18.2524 61.1816 20.1836 61.5918 23.1914H58.6694C58.2764 21.7388 56.8408 20.7305 54.6191 20.7305C52.4316 20.7305 50.8252 21.8584 50.8252 23.4819V23.5161C50.8252 24.7637 51.748 25.5498 53.9185 26.0796L56.7554 26.7632C60.2246 27.6006 61.8994 29.1045 61.8994 31.7363V31.7705C61.8994 35.0518 58.7036 37.3247 54.5166 37.3247ZM68.0859 15.0225C66.958 15.0225 66.0352 14.0996 66.0352 12.9717C66.0352 11.8438 66.958 10.9209 68.0859 10.9209C69.2139 10.9209 70.1367 11.8438 70.1367 12.9717C70.1367 14.0996 69.2139 15.0225 68.0859 15.0225ZM66.582 37V18.5771H69.5557V37H66.582ZM82.749 43.4941C78.3057 43.4941 75.4688 41.4946 75.0073 38.4697L75.0415 38.4526H78.1177L78.1348 38.4697C78.4595 39.8711 80.1001 40.8623 82.749 40.8623C86.0474 40.8623 88.0127 39.3071 88.0127 36.5898V32.8643H87.7393C86.5771 34.8979 84.4922 36.043 81.9629 36.043C77.1948 36.043 74.2383 32.3516 74.2383 27.1904V27.1562C74.2383 21.9951 77.2119 18.2524 82.0312 18.2524C84.6289 18.2524 86.6455 19.5342 87.7734 21.6191H87.9785V18.5771H90.9521V36.7437C90.9521 40.8623 87.7734 43.4941 82.749 43.4941ZM82.6123 33.4111C86.0303 33.4111 88.0811 30.8477 88.0811 27.1904V27.1562C88.0811 23.499 86.0132 20.8843 82.6123 20.8843C79.1943 20.8843 77.2803 23.499 77.2803 27.1562V27.1904C77.2803 30.8477 79.1943 33.4111 82.6123 33.4111ZM96.4893 37V18.5771H99.4629V21.3457H99.7363C100.659 19.3975 102.385 18.2524 105.103 18.2524C109.238 18.2524 111.545 20.6963 111.545 25.0713V37H108.572V25.7891C108.572 22.4736 107.205 20.8843 104.265 20.8843C101.326 20.8843 99.4629 22.8667 99.4629 26.0967V37H96.4893ZM124.448 37.3247C119.185 37.3247 116.006 33.6333 116.006 27.8569V27.8398C116.006 22.1489 119.253 18.2524 124.26 18.2524C129.268 18.2524 132.31 21.978 132.31 27.481V28.6431H119.048C119.133 32.4541 121.235 34.6758 124.517 34.6758C127.012 34.6758 128.55 33.4966 129.045 32.3857L129.114 32.2319H132.087L132.053 32.3687C131.421 34.8638 128.789 37.3247 124.448 37.3247ZM124.243 20.9014C121.509 20.9014 119.424 22.7642 119.099 26.2676H129.285C128.977 22.6274 126.96 20.9014 124.243 20.9014ZM136.924 37V18.5771H139.897V21.3115H140.171C140.872 19.3804 142.598 18.2524 145.093 18.2524C145.657 18.2524 146.289 18.3208 146.58 18.3721V21.2603C145.964 21.1577 145.4 21.0894 144.751 21.0894C141.914 21.0894 139.897 22.8838 139.897 25.584V37H136.924ZM147.28 43.272L148.767 33.5479H152.168L149.485 43.272H147.28ZM168.643 37V12.3394H172.214L180.657 32.9155H180.93L189.373 12.3394H192.944V37H190.073V18.167H189.885L182.092 37H179.495L171.702 18.167H171.514V37H168.643ZM206.377 37.3247C201.113 37.3247 197.935 33.6333 197.935 27.8569V27.8398C197.935 22.1489 201.182 18.2524 206.189 18.2524C211.196 18.2524 214.238 21.978 214.238 27.481V28.6431H200.977C201.062 32.4541 203.164 34.6758 206.445 34.6758C208.94 34.6758 210.479 33.4966 210.974 32.3857L211.042 32.2319H214.016L213.982 32.3687C213.35 34.8638 210.718 37.3247 206.377 37.3247ZM206.172 20.9014C203.438 20.9014 201.353 22.7642 201.028 26.2676H211.213C210.906 22.6274 208.889 20.9014 206.172 20.9014ZM218.853 37V18.5771H221.826V21.3799H222.1C222.92 19.3975 224.663 18.2524 227.073 18.2524C229.568 18.2524 231.311 19.5684 232.166 21.4824H232.439C233.43 19.5342 235.532 18.2524 238.079 18.2524C241.838 18.2524 243.94 20.4058 243.94 24.2681V37H240.967V24.9517C240.967 22.2344 239.719 20.8843 237.122 20.8843C234.558 20.8843 232.866 22.8154 232.866 25.1567V37H229.893V24.4902C229.893 22.3027 228.389 20.8843 226.064 20.8843C223.655 20.8843 221.826 22.9863 221.826 25.584V37H218.853ZM249.307 43.1523V18.5771H252.28V21.5166H252.554C253.682 19.4658 255.732 18.2524 258.296 18.2524C262.961 18.2524 266.021 22.0293 266.021 27.7715V27.8057C266.021 33.582 262.979 37.3247 258.296 37.3247C255.767 37.3247 253.562 36.0601 252.554 34.0947H252.28V43.1523H249.307ZM257.612 34.6929C260.979 34.6929 262.979 32.0952 262.979 27.8057V27.7715C262.979 23.4819 260.979 20.8843 257.612 20.8843C254.263 20.8843 252.212 23.5161 252.212 27.7715V27.8057C252.212 32.061 254.263 34.6929 257.612 34.6929ZM270.84 37V11.2627H273.813V21.3457H274.087C275.01 19.3975 276.736 18.2524 279.453 18.2524C283.589 18.2524 285.896 20.6963 285.896 25.0713V37H282.922V25.7891C282.922 22.4736 281.555 20.8843 278.616 20.8843C275.676 20.8843 273.813 22.8667 273.813 26.0967V37H270.84ZM292.852 15.0225C291.724 15.0225 290.801 14.0996 290.801 12.9717C290.801 11.8438 291.724 10.9209 292.852 10.9209C293.979 10.9209 294.902 11.8438 294.902 12.9717C294.902 14.0996 293.979 15.0225 292.852 15.0225ZM291.348 37V18.5771H294.321V37H291.348ZM306.25 37.3247C302.148 37.3247 299.329 35.3423 298.987 32.3003H302.029C302.524 33.8384 303.994 34.8467 306.353 34.8467C308.831 34.8467 310.591 33.6675 310.591 31.9927V31.9585C310.591 30.7109 309.651 29.8394 307.378 29.2925L304.524 28.6089C301.072 27.7886 299.517 26.2847 299.517 23.6357V23.6187C299.517 20.5596 302.456 18.2524 306.37 18.2524C310.232 18.2524 312.915 20.1836 313.325 23.1914H310.403C310.01 21.7388 308.574 20.7305 306.353 20.7305C304.165 20.7305 302.559 21.8584 302.559 23.4819V23.5161C302.559 24.7637 303.481 25.5498 305.652 26.0796L308.489 26.7632C311.958 27.6006 313.633 29.1045 313.633 31.7363V31.7705C313.633 35.0518 310.437 37.3247 306.25 37.3247ZM317.495 43.272L318.982 33.5479H322.383L319.7 43.272H317.495ZM345.266 37V15.1079H337.319V12.3394H356.289V15.1079H348.342V37H345.266ZM361.04 37V12.3394H364.031L377.412 31.5312H377.686V12.3394H380.728V37H377.737L364.355 17.8765H364.082V37H361.04ZM395.732 43.272L397.219 33.5479H400.62L397.937 43.272H395.732ZM420.273 37L415.112 18.5771H418.086L421.709 33.3086H421.982L426.101 18.5771H428.921L433.04 33.3086H433.313L436.936 18.5771H439.893L434.731 37H431.741L427.622 22.7471H427.349L423.247 37H420.273ZM448.369 37.3247C444.866 37.3247 442.217 35.2056 442.217 31.856V31.8218C442.217 28.5405 444.644 26.6436 448.933 26.3872L454.214 26.0625V24.3877C454.214 22.1147 452.83 20.8843 450.078 20.8843C447.874 20.8843 446.421 21.7046 445.942 23.1401L445.925 23.1914H442.952L442.969 23.0889C443.447 20.2007 446.25 18.2524 450.181 18.2524C454.675 18.2524 457.188 20.5596 457.188 24.3877V37H454.214V34.2827H453.94C452.778 36.248 450.847 37.3247 448.369 37.3247ZM445.259 31.7876C445.259 33.6504 446.848 34.7441 448.984 34.7441C452.009 34.7441 454.214 32.7617 454.214 30.1299V28.4551L449.292 28.7627C446.489 28.9336 445.259 29.9248 445.259 31.7534V31.7876ZM469.424 37.3247C464.758 37.3247 461.699 33.5479 461.699 27.8057V27.7715C461.699 21.9951 464.741 18.2524 469.424 18.2524C471.953 18.2524 474.158 19.5171 475.166 21.4824H475.439V11.2627H478.413V37H475.439V34.0605H475.166C474.038 36.1113 471.987 37.3247 469.424 37.3247ZM470.107 34.6929C473.457 34.6929 475.508 32.061 475.508 27.8057V27.7715C475.508 23.5161 473.457 20.8843 470.107 20.8843C466.741 20.8843 464.741 23.4819 464.741 27.7715V27.8057C464.741 32.0952 466.741 34.6929 470.107 34.6929ZM491.641 37.3247C486.377 37.3247 483.198 33.6333 483.198 27.8569V27.8398C483.198 22.1489 486.445 18.2524 491.453 18.2524C496.46 18.2524 499.502 21.978 499.502 27.481V28.6431H486.24C486.326 32.4541 488.428 34.6758 491.709 34.6758C494.204 34.6758 495.742 33.4966 496.238 32.3857L496.306 32.2319H499.28L499.246 32.3687C498.613 34.8638 495.981 37.3247 491.641 37.3247ZM491.436 20.9014C488.701 20.9014 486.616 22.7642 486.292 26.2676H496.477C496.169 22.6274 494.153 20.9014 491.436 20.9014Z" fill="black"/>
<path d="M413.95 43.3232H501.348V45.374H413.95V43.3232Z" fill="black"/>
<path d="M528.625 9.375L522.375 15.625M516.125 12.5C516.125 13.7311 516.367 14.9502 516.839 16.0877C517.31 17.2251 518 18.2586 518.871 19.1291C519.741 19.9997 520.775 20.6902 521.912 21.1614C523.05 21.6325 524.269 21.875 525.5 21.875C526.731 21.875 527.95 21.6325 529.088 21.1614C530.225 20.6902 531.259 19.9997 532.129 19.1291C533 18.2586 533.69 17.2251 534.161 16.0877C534.633 14.9502 534.875 13.7311 534.875 12.5C534.875 10.0136 533.887 7.62903 532.129 5.87087C530.371 4.11272 527.986 3.125 525.5 3.125C523.014 3.125 520.629 4.11272 518.871 5.87087C517.113 7.62903 516.125 10.0136 516.125 12.5Z" stroke="black" stroke-width="2.08333" stroke-linecap="round" stroke-linejoin="round"/>
<path d="M528.625 15.625V9.375H522.375" stroke="black" stroke-width="2.08333" stroke-linecap="round" stroke-linejoin="round"/>
</svg>
